<svg width="64" height="64" viewBox="0 0 64 64" fill="none" xmlns="http://www.w3.org/2000/svg">
<circle cx="31.733" cy="31.733" r="31.733" fill="#FFFDBA"/>
<circle cx="26.6216" cy="29.1514" r="2.43266" fill="#FFFDBA"/>
<g clip-path="url(#clip0_365_18)">
<path d="M26.1904 29.1431C26.2682 29.1431 26.3314 29.0799 26.3314 29.002C26.3314 28.9241 26.2682 28.861 26.1904 28.861C26.1125 28.861 26.0493 28.9241 26.0493 29.002C26.0493 29.0799 26.1125 29.1431 26.1904 29.1431Z" fill="#F5C711"/>
<path d="M26.6135 29.8953C26.3466 29.8953 26.1221 29.7217 26.0511 29.4849C26.0491 29.4779 26.0488 29.4705 26.0502 29.4633C26.0516 29.4561 26.0546 29.4493 26.0591 29.4435C26.0635 29.4377 26.0693 29.433 26.0759 29.4298C26.0825 29.4266 26.0897 29.425 26.097 29.4252H27.1295C27.1368 29.425 27.1441 29.4266 27.1507 29.4298C27.1572 29.433 27.163 29.4377 27.1675 29.4435C27.1719 29.4493 27.175 29.4561 27.1764 29.4633C27.1777 29.4705 27.1774 29.4779 27.1754 29.4849C27.105 29.7217 26.8804 29.8953 26.6135 29.8953Z" fill="#F5C711"/>
<path d="M27.0365 29.1431C27.1144 29.1431 27.1776 29.0799 27.1776 29.002C27.1776 28.9241 27.1144 28.861 27.0365 28.861C26.9587 28.861 26.8955 28.9241 26.8955 29.002C26.8955 29.0799 26.9587 29.1431 27.0365 29.1431Z" fill="#F5C711"/>
<path d="M26.6134 30.3654C27.2885 30.3654 27.8358 29.8181 27.8358 29.1431C27.8358 28.468 27.2885 27.9207 26.6134 27.9207C25.9384 27.9207 25.3911 28.468 25.3911 29.1431C25.3911 29.8181 25.9384 30.3654 26.6134 30.3654Z" stroke="#F5C711" stroke-width="4" stroke-miterlimit="10"/>
</g>
<path d="M45.1172 27.9453H34.0781L36.5312 13.2266L18.1328 35.3047H29.1719L26.7188 50.0234L45.1172 27.9453Z" fill="#F5C711"/>
<defs>
<clipPath id="clip0_365_18">
<rect width="3.00881" height="3.00881" fill="white" transform="translate(25.1089 27.6387)"/>
</clipPath>
</defs>
</svg>
