<svg width="64" height="64" viewBox="0 0 64 64" fill="none" xmlns="http://www.w3.org/2000/svg">
<circle cx="31.733" cy="31.733" r="31.733" fill="#FFFDBA"/>
<path d="M26.1049 31.6243C27.121 31.6243 27.9447 30.8006 27.9447 29.7846C27.9447 28.7685 27.121 27.9448 26.1049 27.9448C25.0888 27.9448 24.2651 28.7685 24.2651 29.7846C24.2651 30.8006 25.0888 31.6243 26.1049 31.6243Z" fill="#F5C711"/>
<path d="M31.628 41.4365C28.1462 41.4365 25.2179 39.1728 24.2911 36.0835C24.2652 35.9916 24.2611 35.8949 24.2791 35.8011C24.2972 35.7073 24.3369 35.619 24.3952 35.5433C24.4534 35.4676 24.5285 35.4065 24.6145 35.3649C24.7005 35.3234 24.795 35.3025 24.8905 35.3039H38.3585C38.454 35.3025 38.5485 35.3234 38.6345 35.3649C38.7206 35.4065 38.7957 35.4676 38.8539 35.5433C38.9121 35.619 38.9518 35.7073 38.9699 35.8011C38.988 35.8949 38.9839 35.9916 38.958 36.0835C38.0389 39.1728 35.1098 41.4365 31.628 41.4365Z" fill="#F5C711"/>
<path d="M37.1435 31.6243C38.1596 31.6243 38.9833 30.8006 38.9833 29.7846C38.9833 28.7685 38.1596 27.9448 37.1435 27.9448C36.1274 27.9448 35.3037 28.7685 35.3037 29.7846C35.3037 30.8006 36.1274 31.6243 37.1435 31.6243Z" fill="#F5C711"/>
<path d="M31.6245 47.5691C40.4305 47.5691 47.5693 40.4304 47.5693 31.6243C47.5693 22.8183 40.4305 15.6796 31.6245 15.6796C22.8184 15.6796 15.6797 22.8183 15.6797 31.6243C15.6797 40.4304 22.8184 47.5691 31.6245 47.5691Z" stroke="#F5C711" stroke-width="4" stroke-miterlimit="10"/>
</svg>
