<svg width="19" height="34" viewBox="0 0 19 34" fill="none" xmlns="http://www.w3.org/2000/svg">
<path d="M17.7352 11.714H12.3422L18.6911 3.11824C19.0143 2.67804 19.0912 2.07579 18.8847 1.54607C18.679 1.01727 18.229 0.696869 17.7352 0.696869H8.7603C8.28567 0.696869 7.85125 1.00809 7.63501 1.50292L0.139762 18.621C-0.0616415 19.0828 -0.0444673 19.686 0.185429 20.1289C0.413764 20.5719 0.822816 20.8946 1.26544 20.8946H5.14128H5.14909H5.15611H6.77436L3.93793 31.8828C3.76307 32.5677 4.02732 33.2787 4.5679 33.6069C4.75252 33.7198 4.95081 33.7607 5.1487 33.7607C5.52847 33.7607 5.89967 33.5541 6.14674 33.1823L18.7333 14.1987C19.0299 13.7498 19.0838 13.0998 18.8714 12.5898C18.6591 12.0785 18.2192 11.714 17.7352 11.714Z" fill="#F5C711"/>
</svg>
