<svg width="84" height="84" viewBox="0 0 84 84" fill="none" xmlns="http://www.w3.org/2000/svg">
<circle cx="42" cy="42" r="42" fill="#FFFDBA"/>
<path d="M54.875 30.125H30.125C28.9859 30.125 28.0625 31.0484 28.0625 32.1875V48.6875C28.0625 49.8266 28.9859 50.75 30.125 50.75H54.875C56.0141 50.75 56.9375 49.8266 56.9375 48.6875V32.1875C56.9375 31.0484 56.0141 30.125 54.875 30.125Z" stroke="#F5C711" stroke-width="3" stroke-linejoin="round"/>
<path d="M45.5938 54.875L45.0781 50.75H39.9219L39.4062 54.875H45.5938Z" fill="#F5C711" stroke="#F5C711" stroke-width="3" stroke-linecap="round" stroke-linejoin="round"/>
<path d="M49.7188 54.875H35.2812" stroke="#F5C711" stroke-width="3" stroke-linecap="round" stroke-linejoin="round"/>
<path d="M28.0625 45.5938V48.6875C28.064 49.234 28.2818 49.7578 28.6683 50.1442C29.0547 50.5307 29.5785 50.7485 30.125 50.75H54.875C55.4215 50.7485 55.9453 50.5307 56.3317 50.1442C56.7182 49.7578 56.936 49.234 56.9375 48.6875V45.5938H28.0625ZM42.5 49.7188C42.296 49.7188 42.0967 49.6583 41.9271 49.545C41.7575 49.4316 41.6253 49.2706 41.5472 49.0821C41.4692 48.8937 41.4488 48.6864 41.4886 48.4863C41.5284 48.2863 41.6266 48.1025 41.7708 47.9583C41.915 47.8141 42.0988 47.7159 42.2988 47.6761C42.4989 47.6363 42.7062 47.6567 42.8946 47.7347C43.0831 47.8128 43.2441 47.945 43.3575 48.1146C43.4708 48.2842 43.5312 48.4835 43.5312 48.6875C43.5312 48.961 43.4226 49.2233 43.2292 49.4167C43.0358 49.6101 42.7735 49.7188 42.5 49.7188Z" fill="#F5C711"/>
</svg>
