<svg width="84" height="84" viewBox="0 0 84 84" fill="none" xmlns="http://www.w3.org/2000/svg">
<circle cx="42" cy="42" r="42" fill="#FFFDBA"/>
<path d="M32.875 36.5C33.0581 39.0419 34.9438 41 37 41C39.0563 41 40.945 39.0425 41.125 36.5C41.3125 33.8556 39.4769 32 37 32C34.5231 32 32.6875 33.9037 32.875 36.5Z" stroke="#F5C711" stroke-width="3" stroke-linecap="round" stroke-linejoin="round"/>
<path d="M37 45C41.0731 45 44.99 47.0231 45.9713 50.9631C46.1013 51.4844 45.7744 52 45.2388 52H28.7606C28.225 52 27.9 51.4844 28.0281 50.9631C29.0094 46.96 32.9263 45 37 45Z" stroke="#F5C711" stroke-width="3" stroke-miterlimit="10"/>
<path d="M45.5 37.6213C45.6463 39.6513 47.17 41.25 48.8125 41.25C50.455 41.25 51.9813 39.6519 52.125 37.6213C52.2744 35.5094 50.7913 34 48.8125 34C46.8338 34 45.3506 35.5481 45.5 37.6213Z" stroke="#F5C711" stroke-width="3" stroke-linecap="round" stroke-linejoin="round"/>
<path d="M45.125 45.125C46.2531 44.6081 47.4956 44.4094 48.8125 44.4094C52.0625 44.4094 55.1937 46.025 55.9781 49.1719C56.0812 49.5881 55.82 50 55.3925 50H48.375" stroke="#F5C711" stroke-width="3" stroke-miterlimit="10" stroke-linecap="round"/>
</svg>
