<svg width="84" height="85" viewBox="0 0 84 85" fill="none" xmlns="http://www.w3.org/2000/svg">
<ellipse cx="42" cy="42.3123" rx="42" ry="42.3123" fill="#FFFDBA"/>
<path d="M28 28.0149V55.2156C28 55.4828 28.1054 55.739 28.2929 55.928C28.4804 56.1169 28.7348 56.223 29 56.223H56" stroke="#F5C711" stroke-width="3" stroke-linecap="round" stroke-linejoin="round"/>
<path d="M35.75 40.1041H33.25C32.5596 40.1041 32 40.6679 32 41.3634V50.934C32 51.6295 32.5596 52.1933 33.25 52.1933H35.75C36.4404 52.1933 37 51.6295 37 50.934V41.3634C37 40.6679 36.4404 40.1041 35.75 40.1041Z" stroke="#F5C711" stroke-width="3" stroke-linecap="round" stroke-linejoin="round"/>
<path d="M44.75 37.0818H42.25C41.5596 37.0818 41 37.6456 41 38.3411V50.934C41 51.6295 41.5596 52.1933 42.25 52.1933H44.75C45.4404 52.1933 46 51.6295 46 50.934V38.3411C46 37.6456 45.4404 37.0818 44.75 37.0818Z" stroke="#F5C711" stroke-width="3" stroke-linecap="round" stroke-linejoin="round"/>
<path d="M53.7275 33.052H51.2275C50.5371 33.052 49.9775 33.6158 49.9775 34.3113V50.934C49.9775 51.6295 50.5371 52.1933 51.2275 52.1933H53.7275C54.4178 52.1933 54.9775 51.6295 54.9775 50.934V34.3113C54.9775 33.6158 54.4178 33.052 53.7275 33.052Z" stroke="#F5C711" stroke-width="3" stroke-linecap="round" stroke-linejoin="round"/>
</svg>
